<svg version="1.1" viewBox="0.0 0.0 960.0 540.0" fill="none" stroke="none" stroke-linecap="square" stroke-miterlimit="10" xmlns:xlink="http://www.w3.org/1999/xlink" xmlns="http://www.w3.org/2000/svg"><clipPath id="g3e71f38185f_0_51.0"><path d="m0 0l960.0 0l0 540.0l-960.0 0l0 -540.0z" clip-rule="nonzero"/></clipPath><g clip-path="url(#g3e71f38185f_0_51.0)"><path fill="#ffffff" d="m0 0l960.0 0l0 540.0l-960.0 0z" fill-rule="evenodd"/><path fill="#ff0000" d="m388.73752 233.43307l18.498688 0l0 0l27.748047 0l64.74539 0l0 22.72702l0 0l0 9.740173l0 6.4934387l-64.74539 0l-27.939667 6.1678467l0.19161987 -6.1678467l-18.498688 0l0 -6.4934387l0 -9.740173l0 0z" fill-rule="evenodd"/><path fill="#000000" fill-opacity="0.0" d="m377.05118 228.67717l134.36221 0l0 48.472427l-134.36221 0z" fill-rule="evenodd"/><path fill="#ffffff" d="m398.50516 260.71716l0 -16.515625l4.9375 0l0 6.34375l0.703125 0l4.0 -6.34375l5.28125 0l-5.28125 7.796875l5.359375 8.71875l-5.453125 0l-3.90625 -6.59375l-0.703125 0l0 6.59375l-4.9375 0zm21.110596 0.1875q-1.703125 0 -2.828125 -0.1875q-1.109375 -0.171875 -1.765625 -0.59375q-0.640625 -0.4375 -0.921875 -1.171875q-0.28125 -0.734375 -0.375 -1.796875q-0.078125 -1.0625 -0.078125 -2.5625q0 -1.484375 0.078125 -2.546875q0.09375 -1.078125 0.375 -1.796875q0.28125 -0.734375 0.921875 -1.171875q0.65625 -0.4375 1.765625 -0.609375q1.125 -0.1875 2.828125 -0.1875q1.6875 0 2.796875 0.1875q1.125 0.171875 1.765625 0.609375q0.65625 0.4375 0.953125 1.171875q0.296875 0.71875 0.375 1.796875q0.09375 1.0625 0.09375 2.546875q0 1.5 -0.09375 2.5625q-0.078125 1.0625 -0.375 1.796875q-0.296875 0.734375 -0.953125 1.171875q-0.640625 0.421875 -1.765625 0.59375q-1.109375 0.1875 -2.796875 0.1875zm0 -3.28125q0.53125 0 0.828125 -0.0625q0.296875 -0.078125 0.421875 -0.375q0.140625 -0.3125 0.15625 -0.9375q0.03125 -0.625 0.03125 -1.65625q0 -1.078125 -0.03125 -1.671875q-0.015625 -0.609375 -0.15625 -0.90625q-0.125 -0.296875 -0.421875 -0.359375q-0.296875 -0.078125 -0.828125 -0.078125q-0.546875 0 -0.84375 0.078125q-0.296875 0.0625 -0.421875 0.359375q-0.125 0.296875 -0.15625 0.90625q-0.015625 0.59375 -0.015625 1.671875q0 1.03125 0.015625 1.65625q0.03125 0.625 0.15625 0.9375q0.125 0.296875 0.421875 0.375q0.296875 0.0625 0.84375 0.0625zm16.149841 3.28125q-0.640625 0 -1.28125 -0.125q-0.625 -0.109375 -1.15625 -0.453125q-0.53125 -0.359375 -0.890625 -1.03125l-0.234375 0l-0.109375 1.421875l-4.359375 0l0 -17.828125l4.53125 0l0 6.859375l0.21875 0q0.40625 -0.625 0.90625 -0.921875q0.515625 -0.296875 1.109375 -0.40625q0.59375 -0.109375 1.25 -0.109375q1.03125 0 1.765625 0.296875q0.734375 0.28125 1.203125 1.0q0.46875 0.71875 0.671875 1.953125q0.21875 1.21875 0.21875 3.0625q0 1.875 -0.21875 3.09375q-0.203125 1.21875 -0.671875 1.921875q-0.46875 0.6875 -1.203125 0.984375q-0.734375 0.28125 -1.75 0.28125zm-2.078125 -3.578125q0.5 0 0.78125 -0.0625q0.296875 -0.078125 0.40625 -0.328125q0.125 -0.25 0.171875 -0.8125q0.046875 -0.5625 0.046875 -1.53125q0 -0.953125 -0.046875 -1.5q-0.046875 -0.5625 -0.171875 -0.828125q-0.109375 -0.265625 -0.40625 -0.3125q-0.28125 -0.0625 -0.78125 -0.0625q-0.5625 0 -0.84375 0.09375q-0.265625 0.09375 -0.390625 0.484375q-0.109375 0.328125 -0.15625 0.84375q-0.03125 0.515625 -0.03125 1.28125q0 0.765625 0.03125 1.296875q0.046875 0.515625 0.15625 0.84375q0.125 0.359375 0.390625 0.484375q0.28125 0.109375 0.84375 0.109375zm8.062836 -11.0625l0 -3.375l4.625 0l0 3.375l-4.625 0zm0 14.453125l0 -12.234375l4.609375 0l0 12.234375l-4.609375 0zm7.3227234 0l0 -16.515625l4.9375 0l0 6.34375l0.703125 0l4.0 -6.34375l5.28125 0l-5.28125 7.796875l5.359375 8.71875l-5.453125 0l-3.90625 -6.59375l-0.703125 0l0 6.59375l-4.9375 0zm18.814331 0.1875q-1.125 0 -1.890625 -0.359375q-0.75 -0.375 -1.140625 -1.203125q-0.375 -0.828125 -0.375 -2.15625q0 -1.390625 0.3125 -2.1875q0.328125 -0.8125 1.171875 -1.171875q0.859375 -0.359375 2.421875 -0.359375q0.21875 0 0.578125 0.015625q0.359375 0.015625 0.796875 0.03125q0.453125 0 0.890625 0.015625q0.453125 0.015625 0.828125 0.03125l0 -0.421875q0 -0.578125 -0.09375 -0.90625q-0.09375 -0.328125 -0.375 -0.453125q-0.265625 -0.140625 -0.828125 -0.171875q-0.546875 -0.03125 -1.453125 -0.03125q-0.5625 0 -1.203125 0.03125q-0.625 0.015625 -1.25 0.046875q-0.625 0.03125 -1.125 0.09375l0 -3.0625q0.953125 -0.15625 2.21875 -0.28125q1.28125 -0.125 2.765625 -0.125q1.65625 0 2.734375 0.203125q1.078125 0.203125 1.71875 0.625q0.640625 0.40625 0.9375 1.015625q0.296875 0.609375 0.390625 1.421875q0.109375 0.8125 0.109375 1.859375l0 7.3125l-4.40625 0l-0.09375 -1.390625l-0.21875 0q-0.46875 0.71875 -1.03125 1.0625q-0.5625 0.328125 -1.171875 0.421875q-0.59375 0.09375 -1.21875 0.09375zm2.15625 -3.015625q0.359375 0 0.578125 -0.0625q0.234375 -0.0625 0.40625 -0.1875q0.1875 -0.140625 0.265625 -0.328125q0.125 -0.21875 0.15625 -0.515625q0.03125 -0.296875 0.03125 -0.703125l0 -0.578125l-1.5625 0q-0.515625 0 -0.796875 0.078125q-0.28125 0.078125 -0.359375 0.359375q-0.0625 0.28125 -0.0625 0.828125q0 0.40625 0.0625 0.65625q0.078125 0.25 0.359375 0.359375q0.296875 0.09375 0.921875 0.09375zm8.474579 2.828125l0 -12.234375l4.359375 0l0.109375 1.40625l0.203125 0q0.421875 -0.625 0.953125 -0.96875q0.546875 -0.34375 1.171875 -0.484375q0.640625 -0.15625 1.265625 -0.15625q1.203125 0 1.90625 0.3125q0.703125 0.3125 1.078125 0.9375q0.375 0.609375 0.484375 1.5q0.109375 0.875 0.109375 2.03125l0 7.65625l-4.53125 0l0 -6.453125q0 -0.859375 -0.046875 -1.34375q-0.03125 -0.484375 -0.15625 -0.703125q-0.109375 -0.21875 -0.375 -0.265625q-0.25 -0.0625 -0.65625 -0.0625q-0.453125 0 -0.734375 0.09375q-0.265625 0.078125 -0.390625 0.328125q-0.125 0.25 -0.171875 0.71875q-0.046875 0.46875 -0.046875 1.28125l0 6.40625l-4.53125 0z" fill-rule="nonzero"/></g></svg>